<?xml version="1.0" encoding="UTF-8" standalone="no"?>
<svg
   width="456"
   height="456"
   viewBox="0 0 456 456"
   version="1.1"
   xml:space="preserve"
   style="fill-rule:evenodd;clip-rule:evenodd;stroke-linejoin:round;stroke-miterlimit:2;"
   id="svg10"
   xmlns="http://www.w3.org/2000/svg"
   xmlns:svg="http://www.w3.org/2000/svg"><defs
   id="defs14" />
    
    
    
    
<g
   transform="matrix(0.10338095,0,0,-0.10338095,-18.501389,458.26546)"
   fill="#000000"
   stroke="none"
   id="g168"><path
     d="m 2230,4199 c -409,-38 -771,-183 -1079,-434 l -78,-63 -52,51 -51,52 -87,-87 -88,-88 53,-53 53,-53 -40,-45 C 807,3417 703,3262 647,3158 534,2952 450,2685 420,2440 c -13,-111 -13,-394 0,-495 62,-462 276,-889 603,-1201 307,-294 635,-458 1062,-531 155,-26 473,-24 630,6 361,67 658,204 922,424 400,334 649,796 714,1320 19,160 7,483 -25,634 -67,315 -186,578 -376,828 l -78,103 39,38 c 21,21 39,43 39,49 0,6 -37,48 -83,93 l -83,82 -39,-40 c -21,-22 -43,-40 -48,-40 -5,0 -41,27 -80,59 -156,128 -387,256 -587,325 -250,87 -558,128 -800,105 z m 410,-515 c 399,-68 755,-305 986,-656 75,-113 123,-214 169,-353 60,-180 70,-247 70,-480 0,-234 -9,-297 -72,-484 C 3590,1101 3023,689 2385,690 c -203,0 -357,29 -540,102 -208,82 -370,192 -530,360 -196,204 -322,444 -387,735 -31,133 -33,471 -5,603 126,592 543,1030 1119,1176 177,45 402,51 598,18 z"
     id="path164"
     style="fill:#800080" /><path
     d="m 2308,3474 c -59,-31 -58,-18 -58,-668 0,-353 3,-603 9,-614 5,-9 21,-28 36,-42 l 27,-25 346,-3 c 322,-2 349,-1 381,16 66,36 87,116 46,179 -32,48 -63,53 -344,53 h -260 l -1,516 c 0,565 0,558 -60,589 -36,19 -87,19 -122,-1 z"
     id="path166"
     style="fill:#ff00ff" /></g><text
   xml:space="preserve"
   style="font-size:58.6759px;line-height:1.25;font-family:'Open Sans';-inkscape-font-specification:'Open Sans';stroke-width:4.00061"
   x="90.375801"
   y="300.79535"
   id="text239"><tspan
     id="tspan237"
     x="90.375801"
     y="300.79535"
     style="stroke-width:4.00061">Time Until</tspan></text></svg>
